# Aspose.3D Wavefront OBJ Exporter
# Copyright 2004-2020 Aspose Pty Ltd.
# File created: 10/5/2020 3:06:00 PM


#
# object obj_34013242
#

v 46.62950134277343752 241.1616973876953125 0
v 52.60329818725585936 168.87579345703124992 0
v 44.85810089111328128 204.62559509277343752 0
v 57.79679870605468752 275.9945068359375 0
v 69.33730316162109376 136.348907470703125 0
v 77.5989990234375 306.75009155273437504 0
v 72.90969848632812496 206.94380187988281248 0
v 74.32530212402343752 236.1407012939453125 0
v 83.249298095703125 263.97628784179687504 0
v 104.68650054931640624 331.332489013671875 0
v 99.073699951171875 288.55380249023437504 0
v 120.72000122070312496 308.198211669921875 0
v 137.2135009765625 348.066497802734375 0
v 146.71299743652343752 321.57070922851562496 0
v 172.96319580078124992 355.81170654296875008 0
v 175.281402587890625 327.76010131835937504 0
v 209.49940490722656248 354.040313720703125 0
v 204.47830200195312496 326.344512939453125 0
v 232.313995361328125 317.42050170898437504 0
v 244.33219909667968752 342.87298583984375008 0
v 256.89151000976562496 301.59609985351562496 0
v 275.08770751953125 323.07080078125 0
v 276.53579711914062496 279.94979858398437504 0
v 299.67010498046875 295.98330688476562496 0
v 289.90838623046875008 253.95680236816406256 0
v 296.097686767578125 225.38839721679687504 0
v 93.91970062255859376 109.26129913330078124 0
v 79.09909820556640624 178.37539672851562496 0
v 92.47160339355468752 152.38229370117187504 0
v 112.115997314453125 130.73599243164062496 0
v 124.67530059814453128 89.45909881591796872 0
v 136.69340515136718752 114.91169738769531248 0
v 159.50810241699218752 78.29180145263671876 0
v 164.52909851074218752 105.98760223388671872 0
v 196.0442047119140625 76.52040100097656248 0
v 193.72599792480468752 104.57199859619140624 0
v 222.294403076171875 110.76139831542968752 0
v 231.79400634765624992 84.26570129394531248 0
v 248.287506103515625 124.134002685546875 0
v 264.320892333984375 100.99970245361328128 0
v 269.93380737304687504 143.77830505371093744 0
v 291.40850830078125 125.58209991455078128 0
v 285.75808715820312496 168.355804443359375 0
v 294.68218994140625 196.191497802734375 0
v 311.210601806640625 156.33760070800781248 0
v 316.40411376953125 263.456298828125 0
v 322.37789916992187504 191.1703948974609375 0
v 324.1494140625 227.70660400390625 0
v 93.91970062255859376 109.26129913330078124 91.03099822998046875
v 72.90969848632812496 206.94380187988281248 91.03099822998046875
v 69.33730316162109376 136.348907470703125 91.03099822998046875
v 79.09909820556640624 178.37539672851562496 91.03099822998046875
v 92.47160339355468752 152.38229370117187504 91.03099822998046875
v 112.115997314453125 130.73599243164062496 91.03099822998046875
v 124.67530059814453128 89.45909881591796872 91.03099822998046875
v 136.69340515136718752 114.91169738769531248 91.03099822998046875
v 159.50810241699218752 78.29180145263671876 91.03099822998046875
v 164.52909851074218752 105.98760223388671872 91.03099822998046875
v 196.0442047119140625 76.52040100097656248 91.03099822998046875
v 193.72599792480468752 104.57199859619140624 91.03099822998046875
v 222.294403076171875 110.76139831542968752 91.03099822998046875
v 231.79400634765624992 84.26570129394531248 91.03099822998046875
v 248.287506103515625 124.134002685546875 91.03099822998046875
v 264.320892333984375 100.99970245361328128 91.03099822998046875
v 269.93380737304687504 143.77830505371093744 91.03099822998046875
v 291.40850830078125 125.58209991455078128 91.03099822998046875
v 285.75808715820312496 168.355804443359375 91.03099822998046875
v 294.68218994140625 196.191497802734375 91.03099822998046875
v 311.210601806640625 156.33760070800781248 91.03099822998046875
v 296.097686767578125 225.38839721679687504 91.03099822998046875
v 299.67010498046875 295.98330688476562496 91.03099822998046875
v 316.40411376953125 263.456298828125 91.03099822998046875
v 322.37789916992187504 191.1703948974609375 91.03099822998046875
v 324.1494140625 227.70660400390625 91.03099822998046875
v 52.60329818725585936 168.87579345703124992 91.03099822998046875
v 46.62950134277343752 241.1616973876953125 91.03099822998046875
v 44.85810089111328128 204.62559509277343752 91.03099822998046875
v 57.79679870605468752 275.9945068359375 91.03099822998046875
v 77.5989990234375 306.75009155273437504 91.03099822998046875
v 74.32530212402343752 236.1407012939453125 91.03099822998046875
v 83.249298095703125 263.97628784179687504 91.03099822998046875
v 104.68650054931640624 331.332489013671875 91.03099822998046875
v 99.073699951171875 288.55380249023437504 91.03099822998046875
v 120.72000122070312496 308.198211669921875 91.03099822998046875
v 137.2135009765625 348.066497802734375 91.03099822998046875
v 146.71299743652343752 321.57070922851562496 91.03099822998046875
v 172.96319580078124992 355.81170654296875008 91.03099822998046875
v 175.281402587890625 327.76010131835937504 91.03099822998046875
v 209.49940490722656248 354.040313720703125 91.03099822998046875
v 204.47830200195312496 326.344512939453125 91.03099822998046875
v 232.313995361328125 317.42050170898437504 91.03099822998046875
v 244.33219909667968752 342.87298583984375008 91.03099822998046875
v 256.89151000976562496 301.59609985351562496 91.03099822998046875
v 275.08770751953125 323.07080078125 91.03099822998046875
v 276.53579711914062496 279.94979858398437504 91.03099822998046875
v 289.90838623046875008 253.95680236816406256 91.03099822998046875
# 96 vertices

vn 0 0 -1
vn 0 0 1
vn 0.21174055337905884 -0.9773259162902832 0
vn -0.04842666909098625 -0.99882674217224128 0
vn -0.3052915930747986 -0.9522589445114136 0
vn -0.54135215282440184 -0.84079599380493168 0
vn -0.74052071571350096 -0.67203354835510256 0
vn -0.88922244310379024 -0.45747512578964232 0
vn -0.97732645273208624 -0.21173794567584992 0
vn -0.99882674217224128 0.04842666909098625 0
vn -0.9522589445114136 0.3052915930747986 0
vn -0.84079599380493168 0.54135215282440184 0
vn -0.6720349192619324 0.74051946401596064 0
vn -0.457474023103714 0.88922297954559328 0
vn -0.21173851191997528 0.97732633352279664 0
vn 0.04842653870582581 0.99882674217224128 0
vn 0.3052915930747986 0.9522589445114136 0
vn 0.54135340452194216 0.8407951593399048 0
vn 0.74051946401596064 0.6720349192619324 0
vn 0.88922297954559328 0.457474023103714 0
vn 0.9773257970809936 0.2117411196231842 0
vn 0.99882662296295168 -0.04842926561832428 0
vn 0.9522589445114136 -0.3052915930747986 0
vn 0.84079641103744512 -0.54135143756866456 0
vn 0.67203354835510256 -0.74052071571350096 0
vn 0.45747512578964232 -0.88922244310379024 0
vn -0.95225840806961056 0.30529317259788512 0
vn -0.99882686138153072 0.04842429980635643 0
vn -0.97732681035995488 -0.21173635125160216 0
vn -0.88922142982482912 -0.45747709274291992 0
vn -0.74052137136459344 -0.6720328330993652 0
vn -0.54135239124298096 -0.84079581499099728 0
vn -0.3052900731563568 -0.95225942134857184 0
vn -0.04842771217226982 -0.99882668256759648 0
vn 0.2117396295070648 -0.9773260951042176 0
vn 0.45747438073158264 -0.88922280073165888 0
vn 0.67203468084335328 -0.74051964282989504 0
vn 0.84079581499099728 -0.54135239124298096 0
vn 0.9522590637207032 -0.3052910566329956 0
vn 0.99882668256759648 -0.04842771217226982 0
vn 0.9773260951042176 0.2117396295070648 0
vn 0.88922351598739632 0.4574730098247528 0
vn 0.74051964282989504 0.67203468084335328 0
vn 0.54135155677795408 0.84079635143280032 0
vn 0.30529317259788512 0.95225840806961056 0
vn 0.04842771217226982 0.99882668256759648 0
vn -0.2117396295070648 0.9773260951042176 0
vn -0.45747569203376768 0.8892221450805664 0
vn -0.6720328330993652 0.74052137136459344 0
vn -0.84079736471176144 0.54135000705718992 0
# 50 vertex normals

g obj_34013242
s 1
f 1//1 2//1 3//1
f 2//1 1//1 4//1
f 2//1 4//1 5//1
f 5//1 4//1 6//1
f 5//1 6//1 7//1
f 7//1 6//1 8//1
f 8//1 6//1 9//1
f 9//1 6//1 10//1
f 9//1 10//1 11//1
f 11//1 10//1 12//1
f 12//1 10//1 13//1
f 12//1 13//1 14//1
f 14//1 13//1 15//1
f 14//1 15//1 16//1
f 16//1 15//1 17//1
f 16//1 17//1 18//1
f 18//1 17//1 19//1
f 19//1 17//1 20//1
f 19//1 20//1 21//1
f 21//1 20//1 22//1
f 21//1 22//1 23//1
f 23//1 22//1 24//1
f 23//1 24//1 25//1
f 25//1 24//1 26//1
f 7//1 27//1 5//1
f 27//1 7//1 28//1
f 27//1 28//1 29//1
f 27//1 29//1 30//1
f 27//1 30//1 31//1
f 31//1 30//1 32//1
f 31//1 32//1 33//1
f 33//1 32//1 34//1
f 33//1 34//1 35//1
f 35//1 34//1 36//1
f 35//1 36//1 37//1
f 35//1 37//1 38//1
f 38//1 37//1 39//1
f 38//1 39//1 40//1
f 40//1 39//1 41//1
f 40//1 41//1 42//1
f 42//1 41//1 43//1
f 42//1 43//1 44//1
f 42//1 44//1 45//1
f 45//1 44//1 26//1
f 45//1 26//1 24//1
f 45//1 24//1 46//1
f 45//1 46//1 47//1
f 47//1 46//1 48//1
f 49//2 50//2 51//2
f 50//2 49//2 52//2
f 52//2 49//2 53//2
f 53//2 49//2 54//2
f 54//2 49//2 55//2
f 54//2 55//2 56//2
f 56//2 55//2 57//2
f 56//2 57//2 58//2
f 58//2 57//2 59//2
f 58//2 59//2 60//2
f 60//2 59//2 61//2
f 61//2 59//2 62//2
f 61//2 62//2 63//2
f 63//2 62//2 64//2
f 63//2 64//2 65//2
f 65//2 64//2 66//2
f 65//2 66//2 67//2
f 67//2 66//2 68//2
f 68//2 66//2 69//2
f 68//2 69//2 70//2
f 70//2 69//2 71//2
f 71//2 69//2 72//2
f 72//2 69//2 73//2
f 72//2 73//2 74//2
f 75//2 76//2 77//2
f 76//2 75//2 78//2
f 78//2 75//2 51//2
f 78//2 51//2 79//2
f 79//2 51//2 50//2
f 79//2 50//2 80//2
f 79//2 80//2 81//2
f 79//2 81//2 82//2
f 82//2 81//2 83//2
f 82//2 83//2 84//2
f 82//2 84//2 85//2
f 85//2 84//2 86//2
f 85//2 86//2 87//2
f 87//2 86//2 88//2
f 87//2 88//2 89//2
f 89//2 88//2 90//2
f 89//2 90//2 91//2
f 89//2 91//2 92//2
f 92//2 91//2 93//2
f 92//2 93//2 94//2
f 94//2 93//2 95//2
f 94//2 95//2 71//2
f 71//2 95//2 96//2
f 71//2 96//2 70//2
f 62//3 35//3 38//3
f 35//3 62//3 59//3
f 59//4 33//4 35//4
f 33//4 59//4 57//4
f 57//5 31//5 33//5
f 31//5 57//5 55//5
f 55//6 27//6 31//6
f 27//6 55//6 49//6
f 51//7 27//7 49//7
f 27//7 51//7 5//7
f 75//8 5//8 51//8
f 5//8 75//8 2//8
f 77//9 2//9 75//9
f 2//9 77//9 3//9
f 76//10 3//10 77//10
f 3//10 76//10 1//10
f 78//11 1//11 76//11
f 1//11 78//11 4//11
f 79//12 4//12 78//12
f 4//12 79//12 6//12
f 79//13 10//13 6//13
f 10//13 79//13 82//13
f 82//14 13//14 10//14
f 13//14 82//14 85//14
f 85//15 15//15 13//15
f 15//15 85//15 87//15
f 87//16 17//16 15//16
f 17//16 87//16 89//16
f 89//17 20//17 17//17
f 20//17 89//17 92//17
f 92//18 22//18 20//18
f 22//18 92//18 94//18
f 22//19 71//19 24//19
f 71//19 22//19 94//19
f 24//20 72//20 46//20
f 72//20 24//20 71//20
f 46//21 74//21 48//21
f 74//21 46//21 72//21
f 48//22 73//22 47//22
f 73//22 48//22 74//22
f 47//23 69//23 45//23
f 69//23 47//23 73//23
f 45//24 66//24 42//24
f 66//24 45//24 69//24
f 66//25 40//25 42//25
f 40//25 66//25 64//25
f 64//26 38//26 40//26
f 38//26 64//26 62//26
f 68//27 43//27 67//27
f 43//27 68//27 44//27
f 70//28 44//28 68//28
f 44//28 70//28 26//28
f 96//29 26//29 70//29
f 26//29 96//29 25//29
f 95//30 25//30 96//30
f 25//30 95//30 23//30
f 93//31 23//31 95//31
f 23//31 93//31 21//31
f 93//32 19//32 21//32
f 19//32 93//32 91//32
f 91//33 18//33 19//33
f 18//33 91//33 90//33
f 90//34 16//34 18//34
f 16//34 90//34 88//34
f 88//35 14//35 16//35
f 14//35 88//35 86//35
f 86//36 12//36 14//36
f 12//36 86//36 84//36
f 84//37 11//37 12//37
f 11//37 84//37 83//37
f 11//38 81//38 9//38
f 81//38 11//38 83//38
f 9//39 80//39 8//39
f 80//39 9//39 81//39
f 8//40 50//40 7//40
f 50//40 8//40 80//40
f 7//41 52//41 28//41
f 52//41 7//41 50//41
f 28//42 53//42 29//42
f 53//42 28//42 52//42
f 29//43 54//43 30//43
f 54//43 29//43 53//43
f 54//44 32//44 30//44
f 32//44 54//44 56//44
f 56//45 34//45 32//45
f 34//45 56//45 58//45
f 58//46 36//46 34//46
f 36//46 58//46 60//46
f 60//47 37//47 36//47
f 37//47 60//47 61//47
f 61//48 39//48 37//48
f 39//48 61//48 63//48
f 63//49 41//49 39//49
f 41//49 63//49 65//49
f 67//50 41//50 65//50
f 41//50 67//50 43//50
#192 polygons

